<mxfile host="65bd71144e">
    <diagram id="AndmlG8OXz59sX7ShXyj" name="Page-1">
        <mxGraphModel dx="1002" dy="1671" grid="1" gridSize="10" guides="1" tooltips="1" connect="1" arrows="1" fold="1" page="1" pageScale="1" pageWidth="850" pageHeight="1100" background="none" math="0" shadow="0">
            <root>
                <mxCell id="0"/>
                <mxCell id="1" parent="0"/>
                <mxCell id="106" value="" style="rounded=0;whiteSpace=wrap;html=1;" vertex="1" parent="1">
                    <mxGeometry x="10" y="-780" width="130" height="60" as="geometry"/>
                </mxCell>
                <mxCell id="13" style="edgeStyle=none;html=1;endArrow=none;endFill=0;startArrow=classic;startFill=1;exitX=0;exitY=0.5;exitDx=0;exitDy=0;" edge="1" parent="1" source="48">
                    <mxGeometry relative="1" as="geometry">
                        <mxPoint x="400" y="50" as="targetPoint"/>
                    </mxGeometry>
                </mxCell>
                <mxCell id="8" value="availability := checkAvailability(chosen beverage, coffee availability, milk availability)&amp;nbsp;" style="rounded=0;whiteSpace=wrap;html=1;" vertex="1" parent="1">
                    <mxGeometry x="80" y="230" width="320" height="60" as="geometry"/>
                </mxCell>
                <mxCell id="14" value="button press (chosen beverage, already converted to string)&lt;br&gt;sensor information about availability of ingredients (coffee, milk, water, bool)" style="text;html=1;align=center;verticalAlign=middle;resizable=0;points=[];autosize=1;strokeColor=none;fillColor=none;" vertex="1" parent="1">
                    <mxGeometry x="195" y="15" width="430" height="40" as="geometry"/>
                </mxCell>
                <mxCell id="16" value="&lt;br&gt;&lt;span style=&quot;color: rgb(240, 240, 240); font-family: Helvetica; font-size: 12px; font-style: normal; font-variant-ligatures: normal; font-variant-caps: normal; font-weight: 400; letter-spacing: normal; orphans: 2; text-indent: 0px; text-transform: none; widows: 2; word-spacing: 0px; -webkit-text-stroke-width: 0px; background-color: rgb(42, 37, 47); text-decoration-thickness: initial; text-decoration-style: initial; text-decoration-color: initial; float: none; display: inline !important;&quot;&gt;checkAvailability(chosen beverage, coffee availability, milk availability)&amp;nbsp;&lt;/span&gt;&lt;br&gt;" style="text;html=1;strokeColor=none;fillColor=none;align=left;verticalAlign=middle;whiteSpace=wrap;rounded=0;" vertex="1" parent="1">
                    <mxGeometry x="10" y="-1030" width="640" height="70" as="geometry"/>
                </mxCell>
                <mxCell id="47" value="" style="rounded=0;whiteSpace=wrap;html=1;" vertex="1" parent="1">
                    <mxGeometry x="80" y="170" width="640" height="60" as="geometry"/>
                </mxCell>
                <mxCell id="48" value="water available?" style="triangle;whiteSpace=wrap;html=1;rotation=90;horizontal=0;" vertex="1" parent="1">
                    <mxGeometry x="370" y="-120" width="60" height="640" as="geometry"/>
                </mxCell>
                <mxCell id="49" value="yes" style="text;html=1;strokeColor=none;fillColor=none;align=center;verticalAlign=middle;whiteSpace=wrap;rounded=0;" vertex="1" parent="1">
                    <mxGeometry x="135" y="190" width="60" height="30" as="geometry"/>
                </mxCell>
                <mxCell id="50" value="no" style="text;html=1;strokeColor=none;fillColor=none;align=center;verticalAlign=middle;whiteSpace=wrap;rounded=0;" vertex="1" parent="1">
                    <mxGeometry x="625" y="190" width="60" height="30" as="geometry"/>
                </mxCell>
                <mxCell id="52" value="display water error message" style="rounded=0;whiteSpace=wrap;html=1;" vertex="1" parent="1">
                    <mxGeometry x="400" y="230" width="320" height="180" as="geometry"/>
                </mxCell>
                <mxCell id="69" value="" style="rounded=0;whiteSpace=wrap;html=1;" vertex="1" parent="1">
                    <mxGeometry x="10" y="-960" width="810" height="60" as="geometry"/>
                </mxCell>
                <mxCell id="70" value="" style="triangle;whiteSpace=wrap;html=1;rotation=90;" vertex="1" parent="1">
                    <mxGeometry x="420" y="-1300" width="60" height="740" as="geometry"/>
                </mxCell>
                <mxCell id="71" value="Simplified version: choices limited to coffee, cappucino, hot water and no option to edit intensity" style="text;html=1;strokeColor=none;fillColor=none;align=center;verticalAlign=middle;whiteSpace=wrap;rounded=0;" vertex="1" parent="1">
                    <mxGeometry x="90" y="-1070" width="620" height="30" as="geometry"/>
                </mxCell>
                <mxCell id="73" value="chosen beverage?" style="text;html=1;strokeColor=none;fillColor=none;align=center;verticalAlign=middle;whiteSpace=wrap;rounded=0;" vertex="1" parent="1">
                    <mxGeometry x="290" y="-950" width="200" height="30" as="geometry"/>
                </mxCell>
                <mxCell id="74" value="coffee or cappucino" style="text;html=1;strokeColor=none;fillColor=none;align=center;verticalAlign=middle;whiteSpace=wrap;rounded=0;" vertex="1" parent="1">
                    <mxGeometry x="90" y="-940" width="60" height="30" as="geometry"/>
                </mxCell>
                <mxCell id="75" value="water" style="text;html=1;strokeColor=none;fillColor=none;align=center;verticalAlign=middle;whiteSpace=wrap;rounded=0;" vertex="1" parent="1">
                    <mxGeometry x="710" y="-930" width="60" height="30" as="geometry"/>
                </mxCell>
                <mxCell id="90" value="" style="rounded=0;whiteSpace=wrap;html=1;" vertex="1" parent="1">
                    <mxGeometry x="10" y="-900" width="440" height="60" as="geometry"/>
                </mxCell>
                <mxCell id="91" value="&lt;span style=&quot;font-size: 10px; text-align: left;&quot;&gt;availability&amp;nbsp;&lt;/span&gt;&lt;span style=&quot;font-size: 10px; text-align: left;&quot;&gt;:=&lt;/span&gt;&lt;span style=&quot;font-size: 10px; text-align: left;&quot;&gt;&lt;br&gt;&amp;nbsp;true&lt;/span&gt;" style="rounded=0;whiteSpace=wrap;html=1;" vertex="1" parent="1">
                    <mxGeometry x="450" y="-900" width="370" height="240" as="geometry"/>
                </mxCell>
                <mxCell id="92" value="coffee available?" style="triangle;whiteSpace=wrap;html=1;rotation=90;" vertex="1" parent="1">
                    <mxGeometry x="235" y="-1055" width="60" height="370" as="geometry"/>
                </mxCell>
                <mxCell id="95" value="yes" style="text;html=1;strokeColor=none;fillColor=none;align=center;verticalAlign=middle;whiteSpace=wrap;rounded=0;" vertex="1" parent="1">
                    <mxGeometry x="90" y="-880" width="60" height="30" as="geometry"/>
                </mxCell>
                <mxCell id="97" value="" style="rounded=0;whiteSpace=wrap;html=1;" vertex="1" parent="1">
                    <mxGeometry x="10" y="-840" width="250" height="60" as="geometry"/>
                </mxCell>
                <mxCell id="98" value="display coffee error message" style="rounded=0;whiteSpace=wrap;html=1;" vertex="1" parent="1">
                    <mxGeometry x="260" y="-840" width="190" height="180" as="geometry"/>
                </mxCell>
                <mxCell id="99" value="cappucino?" style="triangle;whiteSpace=wrap;html=1;rotation=90;horizontal=0;" vertex="1" parent="1">
                    <mxGeometry x="106.25" y="-928.75" width="60" height="237.5" as="geometry"/>
                </mxCell>
                <mxCell id="101" value="yes" style="text;html=1;strokeColor=none;fillColor=none;align=center;verticalAlign=middle;whiteSpace=wrap;rounded=0;" vertex="1" parent="1">
                    <mxGeometry x="10" y="-810" width="60" height="30" as="geometry"/>
                </mxCell>
                <mxCell id="102" value="no" style="text;html=1;strokeColor=none;fillColor=none;align=center;verticalAlign=middle;whiteSpace=wrap;rounded=0;" vertex="1" parent="1">
                    <mxGeometry x="170" y="-810" width="90" height="30" as="geometry"/>
                </mxCell>
                <mxCell id="104" value="&lt;font style=&quot;font-size: 13px;&quot;&gt;milk available?&lt;/font&gt;" style="triangle;whiteSpace=wrap;html=1;rotation=90;horizontal=0;" vertex="1" parent="1">
                    <mxGeometry x="49.38" y="-814.37" width="60" height="128.75" as="geometry"/>
                </mxCell>
                <mxCell id="105" value="&lt;span style=&quot;font-size: 10px; text-align: left;&quot;&gt;availability := true&lt;/span&gt;" style="rounded=0;whiteSpace=wrap;html=1;" vertex="1" parent="1">
                    <mxGeometry x="140" y="-780" width="120" height="120" as="geometry"/>
                </mxCell>
                <mxCell id="107" value="no" style="text;html=1;strokeColor=none;fillColor=none;align=center;verticalAlign=middle;whiteSpace=wrap;rounded=0;" vertex="1" parent="1">
                    <mxGeometry x="390" y="-880" width="60" height="30" as="geometry"/>
                </mxCell>
                <mxCell id="108" value="availability :=&lt;br&gt;&amp;nbsp;true" style="rounded=0;whiteSpace=wrap;html=1;fontSize=10;align=left;" vertex="1" parent="1">
                    <mxGeometry x="10" y="-720" width="130" height="60" as="geometry"/>
                </mxCell>
                <mxCell id="110" value="yes" style="text;html=1;strokeColor=none;fillColor=none;align=center;verticalAlign=middle;whiteSpace=wrap;rounded=0;" vertex="1" parent="1">
                    <mxGeometry y="-750" width="60" height="30" as="geometry"/>
                </mxCell>
                <mxCell id="111" value="no" style="text;html=1;strokeColor=none;fillColor=none;align=center;verticalAlign=middle;whiteSpace=wrap;rounded=0;" vertex="1" parent="1">
                    <mxGeometry x="76.25" y="-750" width="90" height="30" as="geometry"/>
                </mxCell>
                <mxCell id="112" value="milk error" style="rounded=0;whiteSpace=wrap;html=1;fontSize=10;" vertex="1" parent="1">
                    <mxGeometry x="80" y="-720" width="60" height="60" as="geometry"/>
                </mxCell>
                <mxCell id="113" value="return availability" style="rounded=0;whiteSpace=wrap;html=1;fontSize=10;" vertex="1" parent="1">
                    <mxGeometry x="10" y="-660" width="810" height="60" as="geometry"/>
                </mxCell>
                <mxCell id="114" value="availability := false" style="rounded=0;whiteSpace=wrap;html=1;fontSize=10;" vertex="1" parent="1">
                    <mxGeometry x="10" y="-980" width="810" height="20" as="geometry"/>
                </mxCell>
                <mxCell id="115" value="" style="rounded=0;whiteSpace=wrap;html=1;fontSize=10;" vertex="1" parent="1">
                    <mxGeometry x="80" y="290" width="320" height="60" as="geometry"/>
                </mxCell>
                <mxCell id="116" value="availability?" style="triangle;whiteSpace=wrap;html=1;fontSize=10;rotation=90;" vertex="1" parent="1">
                    <mxGeometry x="210" y="160" width="60" height="320" as="geometry"/>
                </mxCell>
                <mxCell id="117" value="yes" style="text;html=1;strokeColor=none;fillColor=none;align=center;verticalAlign=middle;whiteSpace=wrap;rounded=0;" vertex="1" parent="1">
                    <mxGeometry x="70" y="310" width="60" height="30" as="geometry"/>
                </mxCell>
                <mxCell id="118" value="no" style="text;html=1;strokeColor=none;fillColor=none;align=center;verticalAlign=middle;whiteSpace=wrap;rounded=0;" vertex="1" parent="1">
                    <mxGeometry x="340" y="320" width="60" height="30" as="geometry"/>
                </mxCell>
                <mxCell id="119" value="-" style="rounded=0;whiteSpace=wrap;html=1;" vertex="1" parent="1">
                    <mxGeometry x="240" y="350" width="160" height="60" as="geometry"/>
                </mxCell>
                <mxCell id="120" value="dispense(chosen beverage)" style="rounded=0;whiteSpace=wrap;html=1;" vertex="1" parent="1">
                    <mxGeometry x="80" y="350" width="160" height="60" as="geometry"/>
                </mxCell>
                <mxCell id="121" value="" style="rounded=0;whiteSpace=wrap;html=1;fontSize=10;" vertex="1" parent="1">
                    <mxGeometry x="10" y="-520" width="810" height="60" as="geometry"/>
                </mxCell>
                <mxCell id="122" value="dispense(beverage type)" style="text;html=1;strokeColor=none;fillColor=none;align=left;verticalAlign=middle;whiteSpace=wrap;rounded=0;fontSize=12;" vertex="1" parent="1">
                    <mxGeometry x="10" y="-550" width="440" height="30" as="geometry"/>
                </mxCell>
                <mxCell id="128" value="" style="verticalLabelPosition=bottom;verticalAlign=top;html=1;shape=mxgraph.basic.orthogonal_triangle" vertex="1" parent="1">
                    <mxGeometry x="10" y="-520" width="810" height="60" as="geometry"/>
                </mxCell>
                <mxCell id="129" value="water" style="text;html=1;strokeColor=none;fillColor=none;align=center;verticalAlign=middle;whiteSpace=wrap;rounded=0;fontSize=12;" vertex="1" parent="1">
                    <mxGeometry x="480" y="-490" width="60" height="30" as="geometry"/>
                </mxCell>
                <mxCell id="130" value="coffee" style="text;html=1;strokeColor=none;fillColor=none;align=center;verticalAlign=middle;whiteSpace=wrap;rounded=0;fontSize=12;" vertex="1" parent="1">
                    <mxGeometry x="16.25" y="-490" width="60" height="30" as="geometry"/>
                </mxCell>
                <mxCell id="131" value="capuccino" style="text;html=1;strokeColor=none;fillColor=none;align=center;verticalAlign=middle;whiteSpace=wrap;rounded=0;fontSize=12;" vertex="1" parent="1">
                    <mxGeometry x="260" y="-490" width="60" height="30" as="geometry"/>
                </mxCell>
                <mxCell id="132" value="&lt;br&gt;&lt;span style=&quot;color: rgb(240, 240, 240); font-family: Helvetica; font-size: 12px; font-style: normal; font-variant-ligatures: normal; font-variant-caps: normal; font-weight: 400; letter-spacing: normal; orphans: 2; text-align: center; text-indent: 0px; text-transform: none; widows: 2; word-spacing: 0px; -webkit-text-stroke-width: 0px; background-color: rgb(42, 37, 47); text-decoration-thickness: initial; text-decoration-style: initial; text-decoration-color: initial; float: none; display: inline !important;&quot;&gt;add water and coffee (espresso shot)&lt;/span&gt;&lt;br&gt;" style="rounded=0;whiteSpace=wrap;html=1;fontSize=12;" vertex="1" parent="1">
                    <mxGeometry x="10" y="-460" width="230" height="60" as="geometry"/>
                </mxCell>
                <mxCell id="133" value="add steamed milk to milk reservoir" style="rounded=0;whiteSpace=wrap;html=1;fontSize=12;" vertex="1" parent="1">
                    <mxGeometry x="240" y="-460" width="230" height="60" as="geometry"/>
                </mxCell>
                <mxCell id="134" value="add water" style="rounded=0;whiteSpace=wrap;html=1;fontSize=12;" vertex="1" parent="1">
                    <mxGeometry x="470" y="-460" width="350" height="60" as="geometry"/>
                </mxCell>
                <mxCell id="137" value="dispense main reservoir" style="rounded=0;whiteSpace=wrap;html=1;fontSize=12;" vertex="1" parent="1">
                    <mxGeometry x="470" y="-400" width="350" height="180" as="geometry"/>
                </mxCell>
                <mxCell id="138" value="dispense milk reservoir" style="rounded=0;whiteSpace=wrap;html=1;fontSize=12;" vertex="1" parent="1">
                    <mxGeometry x="240" y="-400" width="230" height="60" as="geometry"/>
                </mxCell>
                <mxCell id="140" value="dispense main reservoir" style="rounded=0;whiteSpace=wrap;html=1;fontSize=12;" vertex="1" parent="1">
                    <mxGeometry x="240" y="-280" width="230" height="60" as="geometry"/>
                </mxCell>
                <mxCell id="142" value="dispense main reservoir" style="rounded=0;whiteSpace=wrap;html=1;fontSize=12;" vertex="1" parent="1">
                    <mxGeometry x="10" y="-400" width="230" height="180" as="geometry"/>
                </mxCell>
                <mxCell id="143" value="&lt;br&gt;&lt;span style=&quot;color: rgb(240, 240, 240); font-family: Helvetica; font-size: 12px; font-style: normal; font-variant-ligatures: normal; font-variant-caps: normal; font-weight: 400; letter-spacing: normal; orphans: 2; text-align: center; text-indent: 0px; text-transform: none; widows: 2; word-spacing: 0px; -webkit-text-stroke-width: 0px; background-color: rgb(42, 37, 47); text-decoration-thickness: initial; text-decoration-style: initial; text-decoration-color: initial; float: none; display: inline !important;&quot;&gt;add water and coffee (espresso shot)&lt;/span&gt;&lt;br&gt;" style="rounded=0;whiteSpace=wrap;html=1;fontSize=12;" vertex="1" parent="1">
                    <mxGeometry x="240" y="-340" width="230" height="60" as="geometry"/>
                </mxCell>
                <mxCell id="146" value="beverage type?" style="text;html=1;strokeColor=none;fillColor=none;align=center;verticalAlign=middle;whiteSpace=wrap;rounded=0;fontSize=12;" vertex="1" parent="1">
                    <mxGeometry x="410" y="-520" width="60" height="30" as="geometry"/>
                </mxCell>
            </root>
        </mxGraphModel>
    </diagram>
</mxfile>